<?xml version="1.0" encoding="utf-8"?>
<!-- Generator: Adobe Illustrator 26.0.1, SVG Export Plug-In . SVG Version: 6.00 Build 0)  -->
<svg version="1.1" id="Layer_1" xmlns="http://www.w3.org/2000/svg" xmlns:xlink="http://www.w3.org/1999/xlink" x="0px" y="0px"
	 viewBox="0 0 1144 240" style="enable-background:new 0 0 1144 240;" xml:space="preserve">
<style type="text/css">
	.st0{fill:#FFFFFF;}
	.st1{fill:#B2E2F3;}
	.st2{fill:#F6D014;}
</style>
<path class="st0" d="M71.14,74.55c-7.68-7.87-19.87-8.16-21.35-8.16c-20.01,0-40.74,15.55-40.74,41.55s20.73,41.55,40.74,41.55
	c5.57,0,15.45-2.26,21.35-8.16v6.67h25.34V68.07H71.14V74.55z M71.14,107.95c0,11.18-9.02,17.23-17.56,17.23
	c-8.78,0-18.23-6.57-18.23-17.23s9.45-17.23,18.23-17.23C62.12,90.72,71.14,96.77,71.14,107.95z"/>
<path class="st0" d="M142.59,66.39c-24.18,0-41.75,17.42-41.75,41.41c0,23.9,17.95,41.89,41.75,41.89
	c16.17,0,29.41-5.95,36.37-16.31l0.67-1.01l-18.71-12.76l-0.72,0.91c-3.21,4.22-9.36,6.81-15.98,6.81
	c-7.44,0-15.79-3.31-17.61-10.51h56.43l0.1-1.1c0.14-1.97,0.34-5.18,0.34-7.25C183.47,84.1,166.29,66.39,142.59,66.39z
	 M127.04,99.94c2.54-8.54,10.94-10.84,15.74-10.84c6.19,0,13.2,3.41,14.83,10.84H127.04z"/>
<path class="st0" d="M284.86,66.39c-23.99,0-41.41,17.42-41.41,41.41c0,24.09,17.42,41.55,41.41,41.55
	c23.7,0,41.55-17.85,41.55-41.55C326.46,83.81,308.95,66.39,284.86,66.39z M284.86,124.36c-9.4,0-16.22-6.96-16.22-16.55
	c0-9.36,6.96-16.41,16.22-16.41c9.36,0,16.41,7.05,16.41,16.41C301.27,117.4,294.36,124.36,284.86,124.36z"/>
<g>
	<path class="st0" d="M254.39,72.1l-1.87-1.34c-4.37-2.88-10.32-4.37-17.66-4.37c-6.72,0-15.55,4.03-20.73,14.88v-13.2H188.6v79.99
		h25.58V119.8c0-20.25,5.76-29.65,18.04-29.65c2.21,0,5.13,0.1,8.21,1.01l0.91,0.29C243.93,83.67,248.44,77.09,254.39,72.1z"/>
</g>
<path class="st0" d="M376.94,66.39c-8.88,0-16.89,3.31-21.54,8.64v-6.96h-25.34v117.99h25.34V141.2c4.61,5.23,12.62,8.49,21.54,8.49
	c22.07,0,38.72-17.99,38.72-41.89C415.71,80.93,395.75,66.39,376.94,66.39z M389.37,108.28c0,9.98-7.05,17.23-16.7,17.23
	c-8.3,0-16.7-5.9-16.7-17.23c0-10.03,7.2-17.56,16.7-17.56C382.32,90.72,389.37,98.11,389.37,108.28z"/>
<path class="st0" d="M460.24,66.39c-23.99,0-41.41,17.42-41.41,41.41c0,24.09,17.42,41.55,41.41,41.55
	c23.7,0,41.55-17.85,41.55-41.55C501.8,83.81,484.33,66.39,460.24,66.39z M476.66,107.8c0,9.6-6.91,16.55-16.41,16.55
	c-9.4,0-16.22-6.96-16.22-16.55c0-9.36,6.96-16.41,16.22-16.41C469.6,91.39,476.66,98.45,476.66,107.8z"/>
<path class="st0" d="M551.17,100.46l-13.15-3.5c-3.6-0.91-5.76-2.64-5.9-4.7c-0.05-1.01,0.29-1.87,0.96-2.59
	c1.2-1.25,3.36-1.92,5.95-1.92c7.44,0,7.53,4.22,7.58,5.61l0.05,1.2h24.14v-1.2c-0.19-19.87-17.23-26.92-33.11-26.92
	c-16.55,0-31.24,10.89-31.43,23.27c-0.24,10.27,2.54,20.59,24.14,26.44l10.12,2.64c5.61,1.49,6.72,3.12,6.72,5.47
	c0,3.45-4.17,5.13-8.25,5.28c-5.85,0-10.12-4.13-10.27-7.82l-0.05-1.15h-23.99v1.25c0.19,18.14,17.42,27.93,33.59,27.93
	c23.9,0,34.74-13.2,34.74-25.48C573.15,120.09,571.57,106.08,551.17,100.46z"/>
<polygon class="st0" points="630.59,68.07 614.32,68.07 614.32,38.32 588.99,38.32 588.99,68.07 574.88,68.07 574.88,88.76 
	588.99,88.76 588.99,148.02 614.32,148.02 614.32,88.76 630.59,88.76 "/>
<path class="st0" d="M707.36,90.91c5.76,0,11.08,2.78,13.92,7.25l0.67,1.1l20.78-14.92l-0.72-1.01
	c-7.68-10.75-20.35-16.94-34.69-16.94c-24.76,0-43.38,17.8-43.38,41.41c0,26.25,22.07,41.89,43.38,41.89
	c14.25,0,27.21-6.38,34.69-17.13l0.67-1.01l-20.78-14.73l-0.67,1.06c-2.83,4.46-8.16,7.25-13.92,7.25
	c-8.69,0-18.04-6.67-18.04-17.37C689.27,97.25,698.49,90.91,707.36,90.91z"/>
<path class="st0" d="M785,66.39c-23.99,0-41.41,17.42-41.41,41.41c0,24.09,17.42,41.55,41.41,41.55c23.7,0,41.55-17.85,41.55-41.55
	C826.56,83.81,809.09,66.39,785,66.39z M801.37,107.8c0,9.6-6.91,16.55-16.41,16.55c-9.4,0-16.22-6.96-16.22-16.55
	c0-9.36,6.96-16.41,16.22-16.41C794.31,91.39,801.37,98.45,801.37,107.8z"/>
<path class="st0" d="M923.63,66.39c-5.47,0-15.55,1.68-23.13,12.62c-4.8-8.25-13.2-12.43-25-12.43c-7.68,0-14.73,3.6-19.05,9.5
	v-8.01h-25.53v79.99h25.53v-42.23c0-12.67,7.68-14.59,12.24-14.59c5.66,0,11.42,4.27,11.56,13.72v43.04h25.53v-42.23
	c0-9.4,4.27-14.59,12.09-14.59c5.76,0,11.56,4.41,11.56,14.25v42.56h25.34v-45.2C954.72,79.69,943.4,66.39,923.63,66.39z"/>
<g>
	<path class="st1" d="M643.11,115.67c-9.79,0-17.51,7.44-17.51,16.94c0,9.6,7.68,17.13,17.51,17.13c9.93,0,17.71-7.53,17.71-17.13
		C660.82,123.06,653.05,115.67,643.11,115.67z"/>
</g>
<g>
	<g>
		<path class="st2" d="M746.95,206.08v-41.41h9.64l17.18,28.17h-5.09l16.7-28.17h9.64l0.1,41.41h-10.75l-0.1-25.05h1.82L773.63,202
			h-5.23l-12.86-20.97h2.26v25.05H746.95z"/>
		<path class="st2" d="M813.03,206.6c-2.54,0-4.75-0.43-6.53-1.3c-1.78-0.86-3.12-2.06-4.03-3.55c-0.91-1.49-1.39-3.17-1.39-5.04
			c0-1.97,0.48-3.69,1.49-5.13c1.01-1.44,2.54-2.54,4.65-3.31s4.8-1.15,8.11-1.15h7.58v5.85h-6.05c-1.82,0-3.07,0.29-3.84,0.86
			c-0.72,0.58-1.1,1.39-1.1,2.35c0,1.01,0.38,1.78,1.1,2.35c0.77,0.58,1.78,0.86,3.07,0.86c1.2,0,2.35-0.29,3.36-0.91
			c1.01-0.62,1.73-1.54,2.21-2.83l1.54,4.13c-0.58,2.21-1.73,3.89-3.45,4.99C818.06,206.08,815.81,206.6,813.03,206.6z
			 M822.48,206.08v-6l-0.77-1.49V187.6c0-1.78-0.53-3.17-1.63-4.13c-1.1-0.96-2.83-1.44-5.18-1.44c-1.54,0-3.12,0.24-4.65,0.72
			c-1.58,0.48-2.93,1.15-4.03,2.06l-3.79-7.63c1.82-1.2,3.98-2.11,6.53-2.74c2.54-0.67,5.09-0.96,7.58-0.96
			c5.23,0,9.26,1.2,12.09,3.6c2.88,2.4,4.27,6.14,4.27,11.23v17.8h-10.41V206.08z"/>
		<path class="st2" d="M840.04,206.08v-32.05h10.7v9.36l-1.58-2.64c0.96-2.4,2.5-4.22,4.61-5.42c2.11-1.2,4.7-1.82,7.77-1.82v10.12
			c-0.53-0.1-0.96-0.14-1.34-0.14c-0.38,0-0.77-0.05-1.2-0.05c-2.3,0-4.13,0.62-5.57,1.87c-1.44,1.25-2.11,3.26-2.11,6.05v14.73
			H840.04z"/>
		<path class="st2" d="M866.14,206.08v-43.91h11.23v43.91H866.14z M875.5,200.17l0.29-13.44l13.1-12.72h13.29l-14.49,14.97
			l-5.76,4.61L875.5,200.17z M889.7,206.08l-9.84-12.28l7.01-8.64l16.46,20.97H889.7V206.08z"/>
		<path class="st2" d="M922.09,206.6c-3.79,0-7.1-0.72-9.93-2.16c-2.83-1.44-4.99-3.41-6.57-5.9c-1.54-2.5-2.35-5.37-2.35-8.54
			c0-3.21,0.77-6.05,2.26-8.54c1.54-2.5,3.6-4.46,6.29-5.85s5.71-2.11,9.07-2.11c3.17,0,6.05,0.62,8.64,1.92
			c2.59,1.3,4.65,3.17,6.19,5.66c1.54,2.5,2.3,5.52,2.3,9.07c0,0.38,0,0.86-0.05,1.34c-0.05,0.53-0.1,1.01-0.1,1.44h-25.38v-5.9
			h19.39l-4.27,1.68c0.05-1.44-0.24-2.74-0.82-3.79c-0.58-1.06-1.34-1.87-2.35-2.5c-1.01-0.62-2.16-0.86-3.5-0.86
			s-2.5,0.29-3.5,0.86c-1.01,0.58-1.78,1.44-2.35,2.5c-0.58,1.1-0.82,2.35-0.82,3.84v1.73c0,1.58,0.34,2.93,0.96,4.08
			c0.67,1.15,1.58,2.02,2.83,2.64c1.2,0.62,2.69,0.91,4.37,0.91c1.58,0,2.93-0.24,4.03-0.67c1.1-0.43,2.26-1.15,3.36-2.11l5.9,6.14
			c-1.54,1.68-3.45,2.98-5.66,3.89C927.85,206.17,925.21,206.6,922.09,206.6z"/>
		<path class="st2" d="M939.94,183.62v-8.4h23.27v8.4H939.94z M957.6,206.6c-4.13,0-7.29-1.01-9.6-3.07
			c-2.3-2.02-3.45-5.09-3.45-9.21v-27.5h11.23v27.4c0,1.15,0.34,2.06,0.96,2.69c0.62,0.67,1.44,0.96,2.45,0.96
			c1.34,0,2.5-0.34,3.45-1.01l2.78,7.87c-0.96,0.62-2.11,1.1-3.5,1.39C960.58,206.46,959.14,206.6,957.6,206.6z"/>
		<path class="st2" d="M969.74,217.59v-43.57h10.7v5.42l-0.05,10.6l0.58,10.65v16.84h-11.23V217.59z M989.94,206.6
			c-2.74,0-5.04-0.62-7.01-1.82c-1.92-1.2-3.41-3.02-4.41-5.42c-1.01-2.45-1.49-5.52-1.49-9.31c0-3.84,0.48-6.96,1.44-9.36
			c0.96-2.45,2.4-4.22,4.27-5.42c1.92-1.2,4.32-1.78,7.2-1.78c2.93,0,5.57,0.67,7.97,2.06c2.4,1.34,4.27,3.26,5.66,5.76
			c1.39,2.45,2.11,5.37,2.11,8.78c0,3.41-0.72,6.33-2.11,8.83c-1.39,2.5-3.31,4.41-5.66,5.76
			C995.51,205.93,992.82,206.6,989.94,206.6z M987.54,197.68c1.25,0,2.4-0.29,3.41-0.86s1.82-1.44,2.45-2.59
			c0.62-1.15,0.91-2.54,0.91-4.13c0-1.63-0.29-2.98-0.91-4.13c-0.62-1.15-1.44-2.02-2.45-2.59c-1.01-0.58-2.16-0.86-3.41-0.86
			c-1.25,0-2.4,0.29-3.41,0.86s-1.82,1.44-2.45,2.59s-0.91,2.54-0.91,4.13c0,1.63,0.29,2.98,0.91,4.13
			c0.62,1.15,1.44,2.02,2.45,2.59C985.15,197.39,986.3,197.68,987.54,197.68z"/>
		<path class="st2" d="M1010.87,206.08v-43.91h11.23v43.91H1010.87z"/>
		<path class="st2" d="M1039.51,206.6c-2.54,0-4.75-0.43-6.53-1.3s-3.12-2.06-4.03-3.55s-1.39-3.17-1.39-5.04
			c0-1.97,0.48-3.69,1.49-5.13s2.54-2.54,4.65-3.31s4.8-1.15,8.11-1.15h7.58v5.85h-6.05c-1.82,0-3.07,0.29-3.84,0.86
			c-0.72,0.58-1.1,1.39-1.1,2.35c0,1.01,0.38,1.78,1.1,2.35c0.77,0.58,1.78,0.86,3.07,0.86c1.2,0,2.35-0.29,3.36-0.91
			c1.01-0.62,1.73-1.54,2.21-2.83l1.54,4.13c-0.58,2.21-1.73,3.89-3.45,4.99C1044.55,206.08,1042.3,206.6,1039.51,206.6z
			 M1048.96,206.08v-6l-0.77-1.49V187.6c0-1.78-0.53-3.17-1.63-4.13c-1.1-0.96-2.83-1.44-5.18-1.44c-1.54,0-3.12,0.24-4.65,0.72
			c-1.58,0.48-2.93,1.15-4.03,2.06l-3.79-7.63c1.82-1.2,3.98-2.11,6.53-2.74c2.54-0.67,5.09-0.96,7.58-0.96
			c5.23,0,9.26,1.2,12.09,3.6c2.88,2.4,4.27,6.14,4.27,11.23v17.8h-10.41V206.08z"/>
		<path class="st2" d="M1083.37,206.6c-3.55,0-6.72-0.72-9.5-2.11c-2.78-1.44-4.94-3.36-6.53-5.9c-1.58-2.5-2.35-5.37-2.35-8.59
			c0-3.21,0.77-6.09,2.35-8.59s3.74-4.41,6.53-5.81c2.78-1.39,5.95-2.11,9.5-2.11c3.65,0,6.77,0.77,9.4,2.3
			c2.64,1.54,4.51,3.69,5.61,6.53l-8.69,4.41c-0.77-1.49-1.68-2.59-2.78-3.26c-1.1-0.67-2.3-1.06-3.6-1.06s-2.5,0.29-3.55,0.86
			s-1.92,1.44-2.5,2.59c-0.62,1.1-0.91,2.5-0.91,4.13c0,1.68,0.29,3.07,0.91,4.22c0.62,1.15,1.44,2.02,2.5,2.59s2.26,0.86,3.55,0.86
			s2.5-0.34,3.6-1.06c1.1-0.67,2.02-1.78,2.78-3.26l8.69,4.41c-1.1,2.78-2.98,4.99-5.61,6.53
			C1090.14,205.84,1086.97,206.6,1083.37,206.6z"/>
		<path class="st2" d="M1119.07,206.6c-3.79,0-7.1-0.72-9.93-2.16c-2.83-1.44-4.99-3.41-6.57-5.9c-1.54-2.5-2.35-5.37-2.35-8.54
			c0-3.21,0.77-6.05,2.26-8.54c1.54-2.5,3.6-4.46,6.29-5.85s5.71-2.11,9.07-2.11c3.17,0,6.05,0.62,8.64,1.92
			c2.59,1.3,4.65,3.17,6.19,5.66c1.54,2.5,2.3,5.52,2.3,9.07c0,0.38,0,0.86-0.05,1.34c-0.05,0.53-0.1,1.01-0.1,1.44h-25.38v-5.9
			h19.39l-4.27,1.68c0.05-1.44-0.24-2.74-0.82-3.79c-0.58-1.06-1.34-1.87-2.35-2.5c-1.01-0.58-2.16-0.86-3.5-0.86
			c-1.34,0-2.5,0.29-3.5,0.86c-1.01,0.58-1.78,1.44-2.35,2.5c-0.58,1.1-0.82,2.35-0.82,3.84v1.73c0,1.58,0.34,2.93,0.96,4.08
			c0.67,1.15,1.58,2.02,2.83,2.64c1.2,0.62,2.69,0.91,4.37,0.91c1.58,0,2.93-0.24,4.03-0.67c1.1-0.43,2.26-1.15,3.36-2.11l5.9,6.14
			c-1.54,1.68-3.45,2.98-5.66,3.89C1124.83,206.17,1122.19,206.6,1119.07,206.6z"/>
	</g>
</g>
</svg>
