<svg width="262" height="41" viewBox="0 0 262 41" fill="none" xmlns="http://www.w3.org/2000/svg">
<g clip-path="url(#clip0_323_39924)">
<path d="M18.0751 19.2425C18.0825 19.876 17.9627 20.5046 17.7228 21.0905C17.4829 21.6764 17.1278 22.2076 16.6789 22.6524C16.23 23.0971 15.6964 23.4462 15.1101 23.6788C14.5238 23.9114 13.8968 24.0228 13.2667 24.0061C10.8572 24.0061 8.25531 22.1855 8.25531 19.2425C8.25531 16.2995 10.8572 14.4842 13.2667 14.4842C13.8964 14.4676 14.5229 14.5787 15.1088 14.811C15.6947 15.0433 16.2281 15.3919 16.6769 15.8361C17.1258 16.2803 17.4809 16.8109 17.7212 17.3961C17.9614 17.9814 18.0818 18.6094 18.0751 19.2425ZM18.0751 10.0052C15.938 7.82482 12.6096 7.755 12.1982 7.755C9.16731 7.75501 6.26058 8.96529 4.11742 11.1196C1.97427 13.2739 0.770264 16.1958 0.770264 19.2425C0.770264 22.2892 1.97427 25.211 4.11742 27.3653C6.26058 29.5197 9.16731 30.7299 12.1982 30.7299C13.7262 30.7299 16.4723 30.107 18.0751 28.4797V30.3164H25.0205V8.21686H18.0751V10.0052Z" fill="white"/>
<path d="M33.4404 17.0513C34.1403 14.6937 36.4484 14.0492 37.7626 14.0492C39.4563 14.0492 41.3903 14.9891 41.8391 17.0513H33.4404ZM37.7146 7.77649C31.0683 7.77649 26.2439 12.6099 26.2439 19.221C26.2439 25.8321 31.1752 30.7998 37.7146 30.7998C42.1596 30.7998 45.8033 29.1564 47.716 26.2939L47.903 26.0147L42.7634 22.4594L42.571 22.7118C41.6788 23.8772 39.9959 24.6022 38.1794 24.6022C36.1385 24.6022 33.8305 23.6839 33.3282 21.6914H48.8486L48.8754 21.3799C48.9181 20.8429 48.9662 19.9514 48.9662 19.3821C48.9662 12.6475 44.2379 7.755 37.7466 7.755" fill="white"/>
<path d="M76.8388 23.7752C75.9425 23.7805 75.0648 23.5184 74.3168 23.0222C73.5687 22.5259 72.9838 21.8178 72.6362 20.9874C72.2886 20.157 72.1938 19.2416 72.3639 18.357C72.5339 17.4724 72.9612 16.6584 73.5916 16.0179C74.222 15.3775 75.0272 14.9394 75.9053 14.7591C76.7835 14.5787 77.6951 14.6643 78.5249 15.0049C79.3546 15.3455 80.0653 15.9258 80.5668 16.6725C81.0684 17.4191 81.3384 18.2986 81.3426 19.1995C81.3695 19.8035 81.2718 20.4065 81.0556 20.9707C80.8394 21.5348 80.5094 22.0479 80.0864 22.4777C79.6634 22.9074 79.1565 23.2445 78.5976 23.4678C78.0387 23.6911 77.4399 23.7958 76.8388 23.7752ZM76.8388 7.755C70.2406 7.755 65.4536 12.5884 65.4536 19.1995C65.4536 25.8106 70.262 30.687 76.8388 30.687C78.3485 30.7208 79.8493 30.4467 81.2507 29.8813C82.6521 29.3158 83.925 28.4708 84.9925 27.3972C86.06 26.3237 86.9 25.0437 87.4619 23.6348C88.0237 22.2258 88.2957 20.717 88.2614 19.1995C88.2614 12.567 83.453 7.755 76.8388 7.755Z" fill="white"/>
<path d="M68.4562 9.3339L67.922 8.96334C66.453 8.09335 64.7633 7.67338 63.0602 7.75498C61.2063 7.75498 58.7861 8.86667 57.3703 11.8634V8.21683H50.3821V30.3164H57.397V22.5023C57.397 16.9063 58.9998 14.3016 62.3549 14.3016C63.1163 14.2852 63.8759 14.3811 64.6095 14.5862L64.8553 14.6561C65.5512 12.5856 66.7963 10.7453 68.4562 9.3339Z" fill="white"/>
<path d="M105.566 19.3392C105.566 22.0942 103.632 24.0974 100.966 24.0974C100.348 24.1091 99.7332 23.993 99.161 23.7563C98.5888 23.5196 98.071 23.1673 97.6397 22.7212C97.2085 22.2751 96.8729 21.7448 96.6539 21.163C96.4349 20.5812 96.337 19.9605 96.3664 19.3392C96.3664 16.5733 98.3432 14.5057 100.966 14.5057C103.59 14.5057 105.566 16.5465 105.566 19.3392ZM102.152 7.755C99.7109 7.755 97.5044 8.66799 96.2328 10.1449V8.21686H89.2446V40.8265H96.1901V28.4314C97.4563 29.8814 99.6575 30.7783 102.11 30.7783C108.184 30.7783 112.763 25.7998 112.763 19.1995C112.763 11.7668 107.271 7.755 102.11 7.755" fill="white"/>
<path d="M129.56 19.1995C129.556 20.0899 129.29 20.9591 128.795 21.6977C128.3 22.4363 127.599 23.0111 126.78 23.3499C125.961 23.6887 125.06 23.7762 124.192 23.6015C123.323 23.4267 122.525 22.9975 121.899 22.3679C121.273 21.7383 120.846 20.9365 120.672 20.0634C120.498 19.1903 120.585 18.285 120.922 17.4616C121.259 16.6381 121.831 15.9334 122.566 15.436C123.3 14.9387 124.165 14.6711 125.051 14.6668C125.648 14.6498 126.242 14.7554 126.796 14.9771C127.351 15.1989 127.855 15.5321 128.277 15.9565C128.699 16.3808 129.031 16.8873 129.251 17.445C129.472 18.0026 129.577 18.5996 129.56 19.1995ZM125.04 7.755C118.447 7.755 113.66 12.5884 113.66 19.1995C113.66 25.8106 118.469 30.687 125.04 30.687C126.551 30.723 128.054 30.4505 129.457 29.8861C130.86 29.3217 132.135 28.477 133.204 27.4032C134.274 26.3294 135.115 25.0487 135.678 23.6387C136.241 22.2286 136.513 20.7184 136.479 19.1995C136.479 12.567 131.67 7.755 125.051 7.755" fill="white"/>
<path d="M150.044 17.1748L146.438 16.2135C145.444 15.9665 144.835 15.4885 144.835 14.9139C144.828 14.782 144.849 14.6501 144.895 14.5264C144.941 14.4027 145.011 14.2896 145.102 14.1942C145.559 13.8078 146.147 13.6152 146.742 13.6572C148.783 13.6572 148.815 14.8333 148.826 15.2146V15.5422H155.467V15.2039C155.419 9.71523 150.733 7.755 146.384 7.755C141.832 7.755 137.793 10.7625 137.745 14.1996C137.681 17.0352 138.434 19.8869 144.381 21.5088L147.17 22.2392C148.719 22.6527 149.018 23.1092 149.018 23.7537C149.018 24.7043 147.875 25.1715 146.753 25.2091C145.15 25.2091 143.975 24.0705 143.937 23.0609V22.7387H137.296V23.077C137.344 28.093 142.105 30.7998 146.534 30.7998C153.095 30.7998 156.087 27.1532 156.087 23.7644C156.087 22.6151 155.648 18.743 150.039 17.1963" fill="white"/>
<path d="M171.885 8.21685H167.413V0H160.446V8.21685H156.567V13.931H160.446V30.3164H167.413V13.931H171.885V8.21685Z" fill="white"/>
<path d="M192.988 14.5326C193.741 14.5191 194.486 14.6953 195.154 15.0452C195.822 15.3951 196.393 15.9075 196.813 16.5358L197 16.8311L202.717 12.712L202.525 12.4434C200.388 9.46283 196.931 7.755 192.988 7.755C186.187 7.755 181.058 12.6744 181.058 19.1995C181.058 26.4443 187.122 30.7783 192.988 30.7783C194.836 30.8132 196.665 30.4017 198.322 29.5784C199.978 28.755 201.414 27.5439 202.509 26.0469L202.696 25.773L196.979 21.7075L196.792 22.0029C196.371 22.6311 195.801 23.1436 195.133 23.4934C194.465 23.8433 193.72 24.0196 192.967 24.0061C190.578 24.0061 188.003 22.1694 188.003 19.1727C188.003 16.1759 190.525 14.5057 192.967 14.5057" fill="white"/>
<path d="M218.841 19.1995C218.836 20.0884 218.569 20.9558 218.075 21.6927C217.58 22.4295 216.88 23.0029 216.062 23.3406C215.244 23.6783 214.345 23.7653 213.478 23.5905C212.611 23.4158 211.814 22.9872 211.189 22.3587C210.564 21.7301 210.138 20.9298 209.964 20.0582C209.79 19.1867 209.876 18.283 210.212 17.4607C210.548 16.6385 211.119 15.9345 211.852 15.4374C212.585 14.9402 213.448 14.6721 214.332 14.6668C214.929 14.6498 215.523 14.7554 216.077 14.9771C216.632 15.1989 217.136 15.5321 217.558 15.9565C217.98 16.3808 218.312 16.8873 218.533 17.445C218.753 18.0026 218.858 18.5996 218.841 19.1995ZM214.332 7.755C207.739 7.755 202.952 12.5884 202.952 19.1995C202.952 25.8106 207.761 30.687 214.332 30.687C215.842 30.7215 217.344 30.448 218.746 29.8829C220.148 29.3178 221.421 28.4729 222.489 27.3992C223.557 26.3255 224.398 25.0454 224.96 23.6361C225.522 22.2267 225.794 20.7175 225.76 19.1995C225.76 12.567 220.952 7.755 214.332 7.755Z" fill="white"/>
<path d="M252.452 7.755C251.186 7.7568 249.941 8.07661 248.83 8.68533C247.718 9.29406 246.776 10.1724 246.089 11.2404C244.774 8.95799 242.461 7.80334 239.213 7.80334C238.196 7.79637 237.192 8.03055 236.282 8.48686C235.372 8.94317 234.583 9.60874 233.977 10.4295V8.21686H226.962V30.3218H233.977V18.6625C233.977 15.1609 236.082 14.64 237.337 14.64C238.892 14.64 240.479 15.8161 240.543 18.4369V30.3379H247.552V18.6625C247.552 16.0685 248.733 14.64 250.876 14.64C252.478 14.64 254.081 15.8537 254.081 18.5712V30.3379H261.027V17.8193C261.027 11.4284 257.912 7.755 252.478 7.755" fill="white"/>
<path d="M175.331 21.3477C174.089 21.3477 172.899 21.8433 172.021 22.7256C171.143 23.6079 170.65 24.8045 170.65 26.0522C170.65 27.2999 171.143 28.4966 172.021 29.3788C172.899 30.2611 174.089 30.7568 175.331 30.7568C175.964 30.7872 176.597 30.6881 177.191 30.4654C177.785 30.2427 178.328 29.901 178.787 29.4612C179.246 29.0213 179.612 28.4924 179.861 27.9064C180.111 27.3205 180.24 26.6897 180.24 26.0522C180.24 25.4148 180.111 24.7839 179.861 24.198C179.612 23.612 179.246 23.0831 178.787 22.6432C178.328 22.2034 177.785 21.8618 177.191 21.6391C176.597 21.4164 175.964 21.3172 175.331 21.3477Z" fill="#A8EEFF"/>
</g>
<defs>
<clipPath id="clip0_323_39924">
<rect width="262" height="41" fill="white"/>
</clipPath>
</defs>
</svg>
